<svg width="24" height="24" viewBox="0 0 24 24" fill="none" xmlns="http://www.w3.org/2000/svg">
<g clip-path="url(#clip0_47_13189)">
<path fill-rule="evenodd" clip-rule="evenodd" d="M9.69141 7.85756C9.45471 7.85756 9.26283 7.66568 9.26283 7.42899V7.42753H6.85714V8.71401H7.98316C7.98877 8.71396 7.99438 8.71394 8 8.71394H16C16.0056 8.71394 16.0112 8.71396 16.0168 8.71401H17.1429V7.42753H14.7372V7.42899C14.7372 7.66568 14.5453 7.85756 14.3086 7.85756C14.0719 7.85756 13.88 7.66568 13.88 7.42899V7.42753H10.12V7.42899C10.12 7.66568 9.9281 7.85756 9.69141 7.85756ZM6 7.42753V10.7139V15.7139V15.999C6 16.9457 6.76751 17.7132 7.71429 17.7132H7.94664C7.96437 17.7137 7.98216 17.7139 8 17.7139H16C16.0178 17.7139 16.0356 17.7137 16.0534 17.7132H16.2857C17.2325 17.7132 18 16.9457 18 15.999V15.7139V10.7139V7.42753V6.57038H17.1429H14.7372V5.7147C14.7372 5.47801 14.5453 5.28613 14.3086 5.28613C14.0719 5.28613 13.88 5.47801 13.88 5.7147V6.57038H10.12V5.7147C10.12 5.47801 9.9281 5.28613 9.69141 5.28613C9.45471 5.28613 9.26283 5.47801 9.26283 5.7147V6.57038H6.85714H6V7.42753ZM13.3848 14.7153C13.1481 14.7153 12.9562 14.9071 12.9562 15.1438C12.9562 15.3805 13.1481 15.5724 13.3848 15.5724H15.2309C15.4676 15.5724 15.6595 15.3805 15.6595 15.1438C15.6595 14.9071 15.4676 14.7153 15.2309 14.7153H13.3848Z" fill="#939499"/>
</g>
<defs>
<clipPath id="clip0_47_13189">
<rect width="12" height="16" fill="white" transform="translate(6 4)"/>
</clipPath>
</defs>
</svg>
