<svg width="64" height="64" viewBox="0 0 64 64" fill="none" xmlns="http://www.w3.org/2000/svg">
<rect width="64" height="64" rx="6" fill="#F2F3F5"/>
<path d="M26.072 32.932H28.52V30.34H26.036C26.132 30.76 26.192 31.216 26.192 31.708C26.192 32.152 26.144 32.56 26.072 32.932ZM23.516 34.588C24.536 34.588 25.268 33.46 25.268 31.708C25.268 29.968 24.536 28.84 23.516 28.84C22.484 28.84 21.764 29.968 21.764 31.708C21.764 33.46 22.484 34.588 23.516 34.588ZM28.52 27.124H29.504V37.912H28.52V33.736H25.832C25.388 34.828 24.548 35.464 23.516 35.464C21.944 35.464 20.828 34 20.828 31.708C20.828 29.416 21.944 27.952 23.516 27.952C24.512 27.952 25.304 28.528 25.76 29.536H28.52V27.124ZM35.2991 29.044V30.412C35.2991 32.128 36.5231 34.036 38.0831 34.768L37.5191 35.56C36.3191 34.96 35.3111 33.7 34.8191 32.26C34.3271 33.832 33.2831 35.2 32.0711 35.824L31.4951 35.044C33.0311 34.276 34.3271 32.236 34.3271 30.412V29.044H31.8671V28.228H37.6871V29.044H35.2991ZM41.7311 31.468V32.296H39.9551V37.888H38.9711V27.136H39.9551V31.468H41.7311Z" fill="#939499"/>
</svg>
