<svg width="12" height="14" viewBox="0 0 12 14" fill="none" xmlns="http://www.w3.org/2000/svg">
<path d="M5.02064 10.2588L8.04086 7.14717C8.09401 7.10223 8.15603 7.07808 8.22692 7.07472C8.2978 7.07138 8.36448 7.09935 8.42696 7.15864C8.48945 7.21795 8.52069 7.28516 8.52069 7.36027C8.52069 7.43539 8.48945 7.50256 8.42696 7.56178L6.89377 9.12692L5.36057 10.6921C5.26163 10.804 5.1462 10.8599 5.01428 10.8599C4.88236 10.8599 4.7665 10.804 4.66671 10.6921L3.1587 9.16422C3.10555 9.12414 3.07898 9.06414 3.07898 8.98423C3.07898 8.90434 3.10555 8.83235 3.1587 8.76827C3.22119 8.71375 3.28787 8.68721 3.35875 8.68865C3.42962 8.69008 3.4963 8.71662 3.55879 8.76827L5.02064 10.2588ZM1.00719 14C0.727657 14 0.489903 13.8995 0.293935 13.6986C0.0979782 13.4976 0 13.2538 0 12.9671V2.5249C0 2.23822 0.0979782 1.99439 0.293935 1.79342C0.489903 1.59246 0.727657 1.49198 1.00719 1.49198H2.51102V0.338568C2.51102 0.245991 2.54073 0.166418 2.60015 0.099851C2.65958 0.0332837 2.73484 0 2.82594 0C2.92218 0 3.00217 0.0332837 3.0659 0.099851C3.12964 0.166418 3.1615 0.245991 3.1615 0.338568V1.49198H8.53327V0.313895C8.53327 0.218632 8.5616 0.142503 8.61824 0.0855094C8.67489 0.0285032 8.74549 0 8.83003 0C8.91973 0 8.99412 0.0295785 9.05318 0.0887356C9.11226 0.14788 9.1418 0.221597 9.1418 0.309885V1.49198H10.9928C11.2723 1.49198 11.5101 1.59246 11.7061 1.79342C11.902 1.99439 12 2.23822 12 2.5249V12.9671C12 13.2538 11.902 13.4976 11.7061 13.6986C11.5101 13.8995 11.2723 14 10.9928 14H1.00719ZM0.559555 5.19324H11.4404V2.5249C11.4404 2.41013 11.3938 2.30493 11.3006 2.20929C11.2073 2.11364 11.1047 2.06582 10.9928 2.06582H1.00719C0.895292 2.06582 0.792707 2.11364 0.699439 2.20929C0.606183 2.30493 0.559555 2.41013 0.559555 2.5249V5.19324Z" fill="#505156"/>
<path d="M7.97402 7.26843L5.06768 10.1882L3.66094 8.78959C3.60081 8.74112 3.53664 8.71622 3.46844 8.71488C3.40024 8.71353 3.33607 8.73843 3.27594 8.78959C3.22479 8.84972 3.19922 8.91727 3.19922 8.99224C3.19922 9.06722 3.22479 9.12352 3.27594 9.16113L4.72709 10.5948C4.82312 10.6998 4.93461 10.7523 5.06155 10.7523C5.1885 10.7523 5.29957 10.6998 5.39479 10.5948L8.34557 7.65748C8.4057 7.60191 8.43576 7.53888 8.43576 7.46839C8.43576 7.39791 8.4057 7.33485 8.34557 7.2792C8.28544 7.22356 8.22127 7.19731 8.15307 7.20045C8.08485 7.2036 8.02517 7.22626 7.97402 7.26843Z" fill="white"/>
</svg>
