<svg width="48" height="48" viewBox="0 0 48 48" fill="none" xmlns="http://www.w3.org/2000/svg">
<path d="M15 27.4949V32.5841C15 32.7118 15.0507 32.8343 15.141 32.9246C15.2313 33.0149 15.3538 33.0656 15.4815 33.0656H20.5852C20.7092 33.0651 20.8282 33.0168 20.9174 32.9308L27.0587 27.023L33.2 21.1152C33.2882 21.0252 33.3376 20.9042 33.3376 20.7782C33.3376 20.6522 33.2882 20.5312 33.2 20.4412L28.313 15.1449C28.2681 15.099 28.2146 15.0626 28.1555 15.0377C28.0963 15.0128 28.0328 15 27.9687 15C27.9046 15 27.8411 15.0128 27.782 15.0377C27.7228 15.0626 27.6693 15.099 27.6244 15.1449L15.13 27.1819C15.0502 27.267 15.004 27.3782 15 27.4949Z" stroke="#212124" stroke-width="1.5" stroke-miterlimit="10"/>
<path d="M26.0742 20.0654L29.9261 23.9173" stroke="#212124" stroke-width="1.5" stroke-miterlimit="10" stroke-linecap="round"/>
<path d="M24.6289 33.0654H33.2956" stroke="#212124" stroke-width="1.5" stroke-miterlimit="10" stroke-linecap="round"/>
</svg>
