<svg width="42" height="43" viewBox="0 0 42 43" fill="none" xmlns="http://www.w3.org/2000/svg">
<circle cx="21" cy="21.1152" r="20.5" fill="#DCDCDE" stroke="#DCDCDE"/>
<path d="M31.2857 20.584C31.2857 26.2646 26.6806 30.8697 21 30.8697C15.3194 30.8697 10.7143 26.2646 10.7143 20.584C10.7143 14.9033 15.3194 10.2983 21 10.2983C26.6806 10.2983 31.2857 14.9033 31.2857 20.584Z" fill="#F2F3F5"/>
<path d="M7.77734 36.1203C9.91183 30.9171 15.0279 27.2525 21 27.2525C26.9721 27.2525 32.0882 30.9171 34.2227 36.1203C30.6975 39.2285 26.0692 41.1147 21 41.1147C15.9308 41.1147 11.3025 39.2285 7.77734 36.1203Z" fill="#F2F3F5"/>
<path d="M18.1992 18.0059V19.5645" stroke="#DCDCDE" stroke-linecap="round"/>
<path d="M23.6172 18.0059V19.5645" stroke="#DCDCDE" stroke-linecap="round"/>
<path d="M17.9904 21.8474C17.9904 21.8474 17.9126 24.1391 21.0504 24.1391C24.1883 24.1391 24.006 21.8474 24.006 21.8474" stroke="#DCDCDE" stroke-linecap="round"/>
</svg>
