<svg width="64" height="64" viewBox="0 0 64 64" fill="none" xmlns="http://www.w3.org/2000/svg">
<rect width="64" height="64" rx="6" fill="#F2F3F5"/>
<path d="M26.912 31.108L27.032 31.912C25.22 32.272 23.612 32.392 22.004 32.392H21.164V27.664H22.136V31.564C23.66 31.552 25.196 31.444 26.912 31.108ZM23.168 34.588V36.94H28.028V34.588H23.168ZM22.208 37.732V33.796H28.988V37.732H22.208ZM30.584 29.596V30.412H28.988V33.208H28.004V27.124H28.988V29.596H30.584ZM35.2991 29.044V30.412C35.2991 32.128 36.5231 34.036 38.0831 34.768L37.5191 35.56C36.3191 34.96 35.3111 33.7 34.8191 32.26C34.3271 33.832 33.2831 35.2 32.0711 35.824L31.4951 35.044C33.0311 34.276 34.3271 32.236 34.3271 30.412V29.044H31.8671V28.228H37.6871V29.044H35.2991ZM41.7311 31.468V32.296H39.9551V37.888H38.9711V27.136H39.9551V31.468H41.7311Z" fill="#939499"/>
</svg>
