<svg width="64" height="64" viewBox="0 0 64 64" fill="none" xmlns="http://www.w3.org/2000/svg">
<rect width="64" height="64" rx="6" fill="#FF8A3D"/>
<path d="M27.072 32.932H29.52V30.34H27.036C27.132 30.76 27.192 31.216 27.192 31.708C27.192 32.152 27.144 32.56 27.072 32.932ZM24.516 34.588C25.536 34.588 26.268 33.46 26.268 31.708C26.268 29.968 25.536 28.84 24.516 28.84C23.484 28.84 22.764 29.968 22.764 31.708C22.764 33.46 23.484 34.588 24.516 34.588ZM29.52 27.124H30.504V37.912H29.52V33.736H26.832C26.388 34.828 25.548 35.464 24.516 35.464C22.944 35.464 21.828 34 21.828 31.708C21.828 29.416 22.944 27.952 24.516 27.952C25.512 27.952 26.304 28.528 26.76 29.536H29.52V27.124ZM36.2991 29.044V30.412C36.2991 32.128 37.5231 34.036 39.0831 34.768L38.5191 35.56C37.3191 34.96 36.3111 33.7 35.8191 32.26C35.3271 33.832 34.2831 35.2 33.0711 35.824L32.4951 35.044C34.0311 34.276 35.3271 32.236 35.3271 30.412V29.044H32.8671V28.228H38.6871V29.044H36.2991ZM42.7311 31.468V32.296H40.9551V37.888H39.9711V27.136H40.9551V31.468H42.7311Z" fill="white"/>
</svg>
