<svg width="23" height="16" viewBox="0 0 23 16" fill="none" xmlns="http://www.w3.org/2000/svg">
<rect width="23" height="16" rx="2" fill="#F2F3F5"/>
<path d="M5.67 4.54V6.15C5.67 7.78 6.69 9.41 7.99 10.03L7.51 10.68C6.49 10.17 5.67 9.1 5.26 7.84C4.87 9.17 4.04 10.3 3.03 10.84L2.53 10.19C3.83 9.54 4.85 7.81 4.85 6.15V4.54H5.67ZM9.1 3.77H9.92V12.75H9.1V7.48H7.02V6.81H9.1V3.77ZM12.1992 4.33H13.0092V5.71H15.5892V4.33H16.3992V8.49H12.1992V4.33ZM13.0092 6.35V7.83H15.5892V6.35H13.0092ZM18.2692 3.78H19.0892V9.21H18.2692V3.78ZM16.1092 9.39C17.9692 9.39 19.1192 10 19.1192 11.06C19.1192 12.12 17.9692 12.73 16.1092 12.73C14.2492 12.73 13.0992 12.12 13.0992 11.06C13.0992 10 14.2492 9.39 16.1092 9.39ZM16.1092 10.03C14.7492 10.03 13.9092 10.41 13.9092 11.06C13.9092 11.7 14.7492 12.09 16.1092 12.09C17.4692 12.09 18.2992 11.7 18.2992 11.06C18.2992 10.41 17.4692 10.03 16.1092 10.03Z" fill="#505156"/>
</svg>
