<svg width="24" height="24" viewBox="0 0 24 24" fill="none" xmlns="http://www.w3.org/2000/svg">
<circle cx="12" cy="12" r="4.5" stroke="#939499"/>
<path d="M12.1835 10.736C12.1301 10.736 12.1061 10.7093 12.1115 10.656L12.2075 10.096C12.2341 9.94133 12.2901 9.824 12.3755 9.744C12.4661 9.65867 12.5781 9.616 12.7115 9.616H12.7435C12.7755 9.616 12.7941 9.62133 12.7995 9.632C12.8101 9.64267 12.8128 9.664 12.8075 9.696L12.7195 10.248C12.6981 10.3973 12.6421 10.5173 12.5515 10.608C12.4608 10.6933 12.3488 10.736 12.2155 10.736H12.1835ZM11.7115 15.08C11.5408 15.08 11.4555 14.9573 11.4555 14.712C11.4555 14.5893 11.4715 14.448 11.5035 14.288L11.8875 12.152C11.9088 12.0133 11.9195 11.928 11.9195 11.896C11.9195 11.816 11.8955 11.776 11.8475 11.776C11.7835 11.776 11.7061 11.8267 11.6155 11.928C11.5248 12.0293 11.4261 12.1893 11.3195 12.408C11.2981 12.472 11.2715 12.504 11.2395 12.504C11.2075 12.504 11.1915 12.4773 11.1915 12.424C11.1915 12.296 11.2475 12.1333 11.3595 11.936C11.4768 11.7333 11.6181 11.56 11.7835 11.416C11.9541 11.2667 12.1115 11.192 12.2555 11.192C12.4208 11.192 12.5035 11.3093 12.5035 11.544C12.5035 11.656 12.4875 11.8027 12.4555 11.984L12.0395 14.296L12.0235 14.4C12.0235 14.4587 12.0475 14.488 12.0955 14.488C12.1595 14.488 12.2368 14.4373 12.3275 14.336C12.4181 14.2293 12.5168 14.0693 12.6235 13.856C12.6501 13.7973 12.6768 13.768 12.7035 13.768C12.7355 13.768 12.7515 13.8027 12.7515 13.872C12.7515 13.9947 12.6928 14.1547 12.5755 14.352C12.4635 14.544 12.3248 14.7147 12.1595 14.864C11.9941 15.008 11.8448 15.08 11.7115 15.08Z" fill="#939499"/>
</svg>
