<svg width="48" height="48" viewBox="0 0 48 48" fill="none" xmlns="http://www.w3.org/2000/svg">
<path d="M20.4607 24.0558C19.9411 23.5647 19.5483 22.9537 19.3163 22.2756C19.0842 21.5976 19.0199 20.8728 19.1288 20.1641C19.2344 19.4642 19.5046 18.7998 19.9168 18.2261C20.329 17.6524 20.8713 17.186 21.4988 16.8656C22.1263 16.5452 22.8207 16.3801 23.5243 16.384C24.228 16.3879 24.9205 16.5608 25.5444 16.8881C26.1683 17.2155 26.7055 17.688 27.1114 18.2663C27.5172 18.8446 27.78 19.5119 27.8779 20.2129C27.9758 20.9139 27.9059 21.6283 27.6741 22.2967C27.4423 22.9651 27.0552 23.5681 26.5451 24.0558C26.5349 24.0623 26.5264 24.0713 26.5205 24.082C26.5147 24.0927 26.5116 24.1047 26.5116 24.1169C26.5116 24.1291 26.5147 24.1411 26.5205 24.1518C26.5264 24.1625 26.5349 24.1716 26.5451 24.1781C27.8147 24.6497 28.9597 25.4083 29.892 26.3953C30.8242 27.3823 31.5188 28.5714 31.9222 29.871C32.9162 28.5279 33.5785 26.9664 33.8546 25.3152C34.1306 23.6639 34.0125 21.9703 33.51 20.374C33.0075 18.7777 32.135 17.3245 30.9645 16.1342C29.7939 14.9438 28.3588 14.0505 26.7775 13.5278C25.1963 13.0051 23.5142 12.8681 21.8699 13.1281C20.2257 13.388 18.6664 14.0375 17.3207 15.0229C15.9751 16.0083 14.8815 17.3014 14.1303 18.7956C13.3791 20.2897 12.9917 21.9422 13.0001 23.6166C12.9989 25.8695 13.7198 28.0629 15.0559 29.871C15.4586 28.5704 16.1529 27.3801 17.0852 26.3921C18.0174 25.4041 19.1628 24.6447 20.433 24.1725C20.4441 24.1684 20.4539 24.1615 20.4617 24.1526C20.4695 24.1438 20.475 24.1331 20.4778 24.1215C20.4805 24.11 20.4804 24.098 20.4774 24.0865C20.4744 24.075 20.4687 24.0645 20.4607 24.0558Z" stroke="#212124" stroke-width="1.5" stroke-miterlimit="10"/>
<path d="M31.9451 29.8711C30.9731 31.2062 29.7019 32.292 28.2348 33.0405C26.7677 33.7889 25.1458 34.179 23.5009 34.179C21.8559 34.179 20.234 33.7889 18.7669 33.0405C17.2998 32.292 16.0286 31.2062 15.0566 29.8711" stroke="#212124" stroke-width="1.5" stroke-miterlimit="10"/>
</svg>
