<svg width="64" height="64" viewBox="0 0 64 64" fill="none" xmlns="http://www.w3.org/2000/svg">
<rect width="64" height="64" rx="6" fill="#F2F3F5"/>
<circle cx="32.0005" cy="25.1733" r="2.66846" fill="#939499"/>
<path fill-rule="evenodd" clip-rule="evenodd" d="M27.7502 15.3744C27.8369 15.2107 28.0069 15.1084 28.1921 15.1084H35.36C35.5274 15.1084 35.6837 15.1922 35.7764 15.3317L37.6273 18.1172H39.9731C41.0777 18.1172 41.9731 19.0126 41.9731 20.1172V30C41.9731 31.1046 41.0777 32 39.9731 32H24.0264C22.9218 32 22.0264 31.1046 22.0264 30V20.1172C22.0264 19.0126 22.9218 18.1172 24.0264 18.1172H26.2975L27.7502 15.3744ZM36.1309 25.0586C36.1309 27.34 34.2814 29.1895 32 29.1895C29.7186 29.1895 27.8691 27.34 27.8691 25.0586C27.8691 22.7772 29.7186 20.9277 32 20.9277C34.2814 20.9277 36.1309 22.7772 36.1309 25.0586ZM31.1455 17.8037C30.6703 17.8037 30.2852 18.1889 30.2852 18.6641C30.2852 19.1392 30.6703 19.5244 31.1455 19.5244H32.8545C33.3297 19.5244 33.7148 19.1392 33.7148 18.6641C33.7148 18.1889 33.3297 17.8037 32.8545 17.8037H31.1455Z" fill="#939499"/>
<path d="M28.964 43.6532C28.964 44.3492 28.916 44.9692 28.82 45.5132C28.724 46.0572 28.564 46.5212 28.34 46.9052C28.124 47.2812 27.84 47.5692 27.488 47.7692C27.144 47.9692 26.72 48.0692 26.216 48.0692C25.6 48.0692 25.088 47.8932 24.68 47.5412C24.28 47.1892 23.98 46.6852 23.78 46.0292C23.588 45.3652 23.492 44.5732 23.492 43.6532C23.492 42.7252 23.58 41.9332 23.756 41.2772C23.94 40.6212 24.232 40.1212 24.632 39.7772C25.032 39.4252 25.564 39.2492 26.228 39.2492C26.852 39.2492 27.364 39.4252 27.764 39.7772C28.172 40.1212 28.472 40.6212 28.664 41.2772C28.864 41.9332 28.964 42.7252 28.964 43.6532ZM24.8 43.6532C24.8 44.3972 24.844 45.0172 24.932 45.5132C25.028 46.0092 25.18 46.3812 25.388 46.6292C25.604 46.8772 25.884 47.0012 26.228 47.0012C26.58 47.0012 26.856 46.8812 27.056 46.6412C27.264 46.3932 27.416 46.0212 27.512 45.5252C27.608 45.0212 27.656 44.3972 27.656 43.6532C27.656 42.9092 27.608 42.2932 27.512 41.8052C27.416 41.3092 27.264 40.9372 27.056 40.6892C26.856 40.4412 26.58 40.3172 26.228 40.3172C25.884 40.3172 25.604 40.4412 25.388 40.6892C25.18 40.9372 25.028 41.3092 24.932 41.8052C24.844 42.2932 24.8 42.9092 24.8 43.6532ZM33.7888 39.3812L30.7888 47.9492H29.5648L32.5648 39.3812H33.7888ZM38.183 47.9492H36.887V42.2612C36.887 42.0612 36.887 41.8772 36.887 41.7092C36.895 41.5332 36.899 41.3652 36.899 41.2052C36.907 41.0372 36.915 40.8772 36.923 40.7252C36.827 40.8292 36.727 40.9332 36.623 41.0372C36.519 41.1332 36.403 41.2412 36.275 41.3612L35.411 42.1172L34.727 41.3012L37.067 39.3812H38.183V47.9492Z" fill="#939499"/>
</svg>
