<svg width="12" height="13" viewBox="0 0 12 13" fill="none" xmlns="http://www.w3.org/2000/svg">
<path fill-rule="evenodd" clip-rule="evenodd" d="M3.69141 2.9726C3.45471 2.9726 3.26283 2.78072 3.26283 2.54403V2.54256H0.857143V3.82904H1.98316C1.98877 3.829 1.99438 3.82897 2 3.82897H10C10.0056 3.82897 10.0112 3.829 10.0168 3.82904H11.1429V2.54256H8.73717V2.54403C8.73717 2.78072 8.54529 2.9726 8.30859 2.9726C8.0719 2.9726 7.88002 2.78072 7.88002 2.54403V2.54256H4.11998V2.54403C4.11998 2.78072 3.9281 2.9726 3.69141 2.9726ZM0 2.54256V5.82897V10.829V11.114C0 12.0608 0.767512 12.8283 1.71429 12.8283H1.94664C1.96437 12.8287 1.98216 12.829 2 12.829H10C10.0178 12.829 10.0356 12.8287 10.0534 12.8283H10.2857C11.2325 12.8283 12 12.0608 12 11.114V10.829V5.82897V2.54256V1.68542H11.1429H8.73717V0.82974C8.73717 0.593047 8.54529 0.401169 8.30859 0.401169C8.0719 0.401169 7.88002 0.593047 7.88002 0.82974V1.68542H4.11998V0.82974C4.11998 0.593047 3.9281 0.401169 3.69141 0.401169C3.45471 0.401169 3.26283 0.593047 3.26283 0.82974V1.68542H0.857143H0V2.54256ZM7.38477 9.8303C7.14807 9.8303 6.95619 10.0222 6.95619 10.2589C6.95619 10.4956 7.14807 10.6874 7.38477 10.6874H9.23092C9.46761 10.6874 9.65949 10.4956 9.65949 10.2589C9.65949 10.0222 9.46761 9.8303 9.23092 9.8303H7.38477Z" fill="#939499"/>
</svg>
