<svg width="44" height="44" viewBox="0 0 44 44" fill="none" xmlns="http://www.w3.org/2000/svg">
<rect width="44" height="44" fill="white"/>
<path d="M22.4979 12.5059L25.2779 18.1366L31.4949 19.0414L26.9964 23.4236L28.0578 29.6154L22.4979 26.6889L16.9429 29.6154L18.0044 23.4236L13.5059 19.0414L19.7179 18.1366L22.4979 12.5059Z" fill="#FF8A3D"/>
<path fill-rule="evenodd" clip-rule="evenodd" d="M22.4975 12C22.6898 12 22.8655 12.1092 22.9507 12.2817L25.6131 17.6743L31.5673 18.5408C31.7577 18.5685 31.9159 18.7019 31.9753 18.8849C32.0347 19.0679 31.9851 19.2688 31.8472 19.403L27.5391 23.5998L28.5556 29.5296C28.5882 29.7193 28.5101 29.911 28.3544 30.024C28.1987 30.1371 27.9923 30.1519 27.822 30.0623L22.4976 27.2597L17.1781 30.0622C17.0079 30.1519 16.8014 30.1371 16.6456 30.0241C16.4899 29.911 16.4118 29.7193 16.4444 29.5296L17.4609 23.5998L13.1528 19.403C13.015 19.2688 12.9653 19.0679 13.0247 18.8849C13.0841 18.7019 13.2422 18.5685 13.4326 18.5408L19.3818 17.6743L22.0442 12.2817C22.1294 12.1092 22.3051 12 22.4975 12ZM22.4975 13.6472L20.1707 18.36C20.0971 18.5091 19.9549 18.6124 19.7903 18.6364L14.5918 19.3935L18.3567 23.0612C18.4759 23.1773 18.5303 23.3446 18.5022 23.5086L17.614 28.69L22.2619 26.2413C22.4093 26.1636 22.5855 26.1636 22.7329 26.2412L27.3861 28.6905L26.4978 23.5086C26.4697 23.3446 26.5241 23.1773 26.6433 23.0612L30.4081 19.3936L25.2047 18.6364C25.0401 18.6124 24.8979 18.5091 24.8242 18.36L22.4975 13.6472Z" fill="#FF8A3D"/>
<path d="M26.9298 13.7791L26.1413 16.4731C26.1284 16.516 26.1274 16.5614 26.1384 16.6048C26.1493 16.6481 26.1718 16.6877 26.2034 16.7193C26.235 16.7509 26.2746 16.7734 26.3179 16.7843C26.3613 16.7953 26.4068 16.7943 26.4496 16.7815L29.174 16.0132C29.216 16.0011 29.2542 15.9784 29.2849 15.9471C29.3155 15.9159 29.3375 15.8772 29.3487 15.835C29.3599 15.7927 29.3599 15.7482 29.3488 15.7059C29.3377 15.6636 29.3158 15.6249 29.2852 15.5936L27.3594 13.6729C27.3287 13.6397 27.2897 13.6154 27.2464 13.6024C27.2031 13.5895 27.1571 13.5883 27.1133 13.5992C27.0694 13.61 27.0292 13.6324 26.997 13.6641C26.9647 13.6957 26.9415 13.7354 26.9298 13.7791Z" fill="#FBEBDE"/>
<path d="M24.2758 30.7015L22.9161 28.2551C22.8941 28.2162 22.8621 28.1838 22.8235 28.1613C22.7849 28.1388 22.741 28.127 22.6963 28.127C22.6515 28.127 22.6076 28.1388 22.569 28.1613C22.5304 28.1838 22.4984 28.2162 22.4764 28.2551L21.1167 30.7015C21.0942 30.7394 21.0822 30.7826 21.082 30.8267C21.0818 30.8708 21.0934 30.9142 21.1156 30.9523C21.1377 30.9904 21.1696 31.0219 21.2081 31.0436C21.2465 31.0653 21.29 31.0763 21.3341 31.0755H24.0534C24.0973 31.0756 24.1405 31.0643 24.1787 31.0426C24.217 31.0209 24.2489 30.9897 24.2713 30.9519C24.2938 30.9142 24.306 30.8712 24.3068 30.8273C24.3076 30.7834 24.2969 30.74 24.2758 30.7015Z" fill="#FBEBDE"/>
<path d="M15.7186 16.0129L18.4127 16.7812C18.4555 16.794 18.501 16.795 18.5443 16.784C18.5877 16.7731 18.6273 16.7506 18.6589 16.719C18.6905 16.6874 18.713 16.6478 18.7239 16.6045C18.7348 16.5611 18.7338 16.5156 18.721 16.4728L17.9527 13.7788C17.939 13.7399 17.9159 13.705 17.8856 13.6771C17.8552 13.6492 17.8185 13.6291 17.7786 13.6186C17.7388 13.6082 17.6969 13.6076 17.6568 13.617C17.6166 13.6264 17.5794 13.6455 17.5483 13.6726L15.6276 15.5933C15.5968 15.6232 15.574 15.6605 15.5616 15.7016C15.5492 15.7428 15.5474 15.7864 15.5565 15.8284C15.5656 15.8704 15.5853 15.9094 15.6137 15.9416C15.642 15.9739 15.6781 15.9984 15.7186 16.0129Z" fill="#FBEBDE"/>
</svg>
