<svg width="343" height="32" viewBox="0 0 343 32" fill="none" xmlns="http://www.w3.org/2000/svg">
<rect width="343" height="32" rx="6" fill="#F2F3F5"/>
<path d="M142.672 13.992H140.38C139.696 15.732 138.148 16.92 135.712 17.604L135.1 16.356C137.62 15.684 138.832 14.496 139.036 12.996H135.7V11.724H140.764C140.764 12.072 140.74 12.408 140.692 12.732H142.672V10.98H144.256V17.34H142.672V16.284H140.236V15.012H142.672V13.992ZM140.608 20.748C141.964 20.748 142.768 20.4 142.768 19.728C142.768 19.056 141.964 18.708 140.608 18.708C139.24 18.708 138.436 19.056 138.436 19.728C138.436 20.4 139.24 20.748 140.608 20.748ZM140.608 17.484C142.852 17.484 144.328 18.348 144.328 19.728C144.328 21.108 142.852 21.972 140.608 21.972C138.352 21.972 136.876 21.108 136.876 19.728C136.876 18.348 138.352 17.484 140.608 17.484ZM151.695 15.984L151.851 17.244C150.567 17.484 149.427 17.52 147.327 17.52H146.475V13.92H149.739V12.876H146.463V11.604H151.299V15.096H148.047V16.248C149.631 16.236 150.603 16.188 151.695 15.984ZM147.735 19.548V18.288H155.295V22.044H153.711V19.548H147.735ZM153.711 10.992L155.295 10.98V17.796H153.711V16.128H151.935V14.868H153.711V13.776H151.935V12.504H153.711V10.992ZM161.114 12.432L158.114 21H156.662L159.662 12.432H161.114ZM169.344 13.992H167.052C166.368 15.732 164.82 16.92 162.384 17.604L161.772 16.356C164.292 15.684 165.504 14.496 165.708 12.996H162.372V11.724H167.436C167.436 12.072 167.412 12.408 167.364 12.732H169.344V10.98H170.928V17.34H169.344V16.284H166.908V15.012H169.344V13.992ZM167.28 20.748C168.636 20.748 169.44 20.4 169.44 19.728C169.44 19.056 168.636 18.708 167.28 18.708C165.912 18.708 165.108 19.056 165.108 19.728C165.108 20.4 165.912 20.748 167.28 20.748ZM167.28 17.484C169.524 17.484 171 18.348 171 19.728C171 21.108 169.524 21.972 167.28 21.972C165.024 21.972 163.548 21.108 163.548 19.728C163.548 18.348 165.024 17.484 167.28 17.484ZM179.219 11.952V13.188H172.751V11.952H175.187V10.896H176.771V11.952H179.219ZM174.851 15.54C174.851 16.08 175.319 16.368 175.991 16.368C176.663 16.368 177.131 16.08 177.131 15.54C177.131 15.012 176.663 14.724 175.991 14.724C175.319 14.724 174.851 15.012 174.851 15.54ZM178.643 15.54C178.643 16.716 177.539 17.532 175.991 17.532C174.443 17.532 173.339 16.716 173.339 15.54C173.339 14.364 174.443 13.56 175.991 13.56C177.539 13.56 178.643 14.364 178.643 15.54ZM176.171 19.368V20.664H180.419V19.368H176.171ZM174.611 21.9V18.12H181.967V21.9H174.611ZM180.383 10.98H181.967V17.652H180.383V15.492H179.003V14.208H180.383V10.98ZM195.564 14.016V15.264H187.92V11.28H195.504V12.54H189.492V14.016H195.564ZM191.664 20.832C193.14 20.832 193.896 20.58 193.896 20.004C193.896 19.428 193.14 19.164 191.664 19.164C190.188 19.164 189.432 19.428 189.432 20.004C189.432 20.58 190.188 20.832 191.664 20.832ZM191.664 17.964C194.052 17.964 195.504 18.696 195.504 20.004C195.504 21.3 194.052 22.032 191.664 22.032C189.276 22.032 187.836 21.3 187.836 20.004C187.836 18.696 189.276 17.964 191.664 17.964ZM186.708 16.032H196.704V17.328H186.708V16.032ZM198.839 20.028V18.78H206.591V21.996H205.007V20.028H198.839ZM203.531 16.896H207.743V18.156H197.735V16.896H201.947V16.104H198.983V13.068H204.959V12.396H198.959V11.196H206.519V14.184H200.543V14.904H206.747V16.104H203.531V16.896Z" fill="#212124"/>
</svg>
